# xmcd
#
# Track frame offsets:
#	150
#	23028
#	45369
#	64286
#	84209
#	104182
#	122428
#	140011
#	162250
#	177071
#	195800
#	216545
#	236307
#	261812
#	280392
#	299763
#	316354
#
# Disc length: 4494 seconds
#
# Revision: 0
# Processed by: cddbd v1.5.1PL0 Copyright (c) Steve Scherf et al.
# Submitted via: EasyCDDAExtractor 4.6.9.1
#
DISCID=f7118c11
DTITLE=Tori Amos - Diamond Collection
DYEAR=1900
DGENRE=Other
TTITLE0=Cornflake girl
TTITLE1=Crucify
TTITLE2=Spark
TTITLE3=Caught a lite sneeze
TTITLE4=Precious things
TTITLE5=Past the mission
TTITLE6=God
TTITLE7=China
TTITLE8=Pretty godd Year
TTITLE9=Silent all these years
TTITLE10=Black dove (January)
TTITLE11=Jackie's strenght
TTITLE12=Winter
TTITLE13=Playboy Mommy
TTITLE14=Northem lad
TTITLE15=Talula (The tornado mix)
TTITLE16=Tear in your hand
EXTD=
EXTT0=
EXTT1=
EXTT2=
EXTT3=
EXTT4=
EXTT5=
EXTT6=
EXTT7=
EXTT8=
EXTT9=
EXTT10=
EXTT11=
EXTT12=
EXTT13=
EXTT14=
EXTT15=
EXTT16=
PLAYORDER=
